<svg xmlns="http://www.w3.org/2000/svg" fill="none" viewBox="0 0 34 25"><title>Quote icon</title><desc>Black quote icon</desc><path fill="#000" d="M26.7 10.95c-3.5 0-6.06 1.6-7.29 4.33-.1-.62-.1-.8-.1-1.23 0-6.45 5.5-12.1 11.18-13.25l-.18-.8a16 16 0 0 0-12.7 15.81c0 5.3 3.88 9.19 8.53 9.19 4.83 0 7.86-3.27 7.86-7.16 0-3.88-2.84-6.89-7.3-6.89zm-17.6 0c-3.51 0-6.07 1.6-7.3 4.33-.1-.62-.1-.8-.1-1.23C1.7 7.6 7.2 1.95 12.89.8L12.7 0A16 16 0 0 0 0 15.81C0 21.11 3.88 25 8.53 25c4.83 0 7.86-3.27 7.86-7.16 0-3.88-2.84-6.89-7.3-6.89z"/></svg>